<svg width="1600" height="1200" viewBox="0 0 1600 1200" fill="none" xmlns="http://www.w3.org/2000/svg">
<g clip-path="url(#clip0)">
<rect width="1600" height="1200" fill="#2D132C"/>
<path d="M1488.97 1045.94C1152.98 1210.49 747.674 1072.43 583.696 737.598C419.717 402.765 559.148 -2.06745 895.141 -166.615C1231.14 -331.162 1636.44 -193.104 1800.42 141.729C1964.4 476.561 1824.96 881.394 1488.97 1045.94Z" stroke="#FF4A3C" stroke-width="3.97556"/>
<rect x="1188.88" y="441.216" width="1104.38" height="1104.38" transform="rotate(108.907 1188.88 441.216)" stroke="#FFBD15" stroke-width="3.97556"/>
<path d="M584.434 737.233C502.769 570.477 496.039 386.5 551.168 223.482L1188.04 441.626L969.899 1078.5C807.316 1022.1 666.1 903.989 584.434 737.233Z" stroke="#9A4797" stroke-width="5.30075"/>
<path fill-rule="evenodd" clip-rule="evenodd" d="M357.665 664.853C337.024 697.189 301.14 718 259.541 718C194.443 718 143 666.774 143 600.5C143 534.226 194.443 483 259.541 483C301.14 483 337.024 503.811 357.665 536.147L337.659 548.954C321.464 523.341 293.519 506.052 259.541 506.052C207.145 506.052 167.451 547.353 167.451 600.5C167.451 653.647 207.145 694.948 259.541 694.948C293.519 694.948 321.464 677.659 337.659 652.046L357.665 664.853ZM540.9 634.117C540.9 679.901 506.287 717.36 458.019 717.36C409.751 717.36 375.138 679.901 375.138 634.117C375.138 588.334 409.751 550.875 458.019 550.875C506.287 550.875 540.9 588.334 540.9 634.117ZM398.002 634.117C398.002 668.375 421.818 696.549 458.019 696.549C494.22 696.549 518.036 668.375 518.036 634.117C518.036 599.86 494.22 571.685 458.019 571.685C421.818 571.685 398.002 599.86 398.002 634.117ZM824.671 717.36C857.378 717.36 883.418 700.391 897.39 675.418L878.019 664.213C868.493 683.422 849.44 696.549 824.671 696.549C788.47 696.549 764.654 668.375 764.654 634.117C764.654 599.86 788.47 571.685 824.671 571.685C849.44 571.685 868.493 584.812 878.019 604.022L897.39 592.816C883.418 567.843 857.378 550.875 824.671 550.875C776.403 550.875 741.79 588.334 741.79 634.117C741.79 679.901 776.403 717.36 824.671 717.36ZM1169.07 678.3C1155.1 702.312 1131.6 717.36 1098.58 717.36C1048.72 717.36 1016.97 680.221 1016.97 634.117C1016.97 587.693 1050.94 550.875 1099.21 550.875C1140.49 550.875 1173.52 580.65 1173.84 631.876V637.959H1039.83C1040.15 670.936 1063.96 696.549 1098.58 696.549C1124.62 696.549 1140.18 685.343 1150.97 666.454L1169.07 678.3ZM1150.66 618.109C1146.85 589.294 1124.93 571.685 1098.26 571.685C1071.9 571.685 1047.13 588.974 1041.74 618.109H1150.66ZM1382.74 717.36C1415.77 717.36 1439.26 702.312 1453.24 678.3L1435.14 666.454C1424.34 685.343 1408.78 696.549 1382.74 696.549C1348.13 696.549 1324.31 670.936 1323.99 637.959H1458V631.876C1457.68 580.65 1424.66 550.875 1383.38 550.875C1335.11 550.875 1301.13 587.693 1301.13 634.117C1301.13 680.221 1332.88 717.36 1382.74 717.36ZM1382.42 571.685C1409.1 571.685 1431.01 589.294 1434.82 618.109H1325.9C1331.3 588.974 1356.07 571.685 1382.42 571.685ZM1217.95 509.915H1240.45V554.159H1286.64V575.228H1240.45V693.004H1286.64V714.073H1240.45H1217.95V693.004V575.228H1184.12V554.159H1217.95V509.915ZM950.815 554.159H928.321V575.228V714.073H950.815V575.228H1010.33V554.159H950.815ZM597.789 618.787C597.789 590.046 617.831 571.59 642.552 571.59C667.274 571.59 687.315 590.338 687.315 618.787V714.092H709.809V618.787C709.809 581.337 679.697 550.978 642.552 550.978C605.408 550.978 575.296 581.337 575.296 618.787V714.092H597.789V618.787Z" fill="white"/>
</g>
<defs>
<clipPath id="clip0">
<rect width="1600" height="1200" fill="white"/>
</clipPath>
</defs>
</svg>
