<svg width="914" height="145" viewBox="0 0 914 145" fill="none" xmlns="http://www.w3.org/2000/svg">
<path fill-rule="evenodd" clip-rule="evenodd" d="M110.029 99.2612C101.757 112.196 87.3764 120.52 70.7051 120.52C44.6164 120.52 24 100.03 24 73.52C24 47.0105 44.6164 26.52 70.7051 26.52C87.3764 26.52 101.757 34.8443 110.029 47.7789L102.012 52.9015C95.5212 42.6563 84.3222 35.7407 70.7051 35.7407C49.7069 35.7407 33.7992 52.2612 33.7992 73.52C33.7992 94.7789 49.7069 111.299 70.7051 111.299C84.3222 111.299 95.5212 104.384 102.012 94.1385L110.029 99.2612ZM183.463 86.9669C183.463 105.28 169.591 120.264 150.247 120.264C130.903 120.264 117.032 105.28 117.032 86.9669C117.032 68.6535 130.903 53.6699 150.247 53.6699C169.591 53.6699 183.463 68.6535 183.463 86.9669ZM126.195 86.9669C126.195 100.67 135.739 111.94 150.247 111.94C164.755 111.94 174.3 100.67 174.3 86.9669C174.3 73.2639 164.755 61.9941 150.247 61.9941C135.739 61.9941 126.195 73.2639 126.195 86.9669ZM297.187 120.264C310.295 120.264 320.73 113.476 326.33 103.487L318.567 99.005C314.749 106.689 307.113 111.94 297.187 111.94C282.679 111.94 273.134 100.67 273.134 86.9669C273.134 73.2639 282.679 61.9941 297.187 61.9941C307.113 61.9941 314.749 67.2448 318.567 74.9287L326.33 70.4464C320.73 60.4573 310.295 53.6699 297.187 53.6699C277.843 53.6699 263.971 68.6535 263.971 86.9669C263.971 105.28 277.843 120.264 297.187 120.264ZM435.21 104.64C429.61 114.245 420.193 120.264 406.958 120.264C386.978 120.264 374.251 105.408 374.251 86.9669C374.251 68.3974 387.868 53.6699 407.212 53.6699C423.756 53.6699 436.992 65.58 437.119 86.0704V88.5037H383.414C383.542 101.694 393.086 111.94 406.958 111.94C417.393 111.94 423.629 107.457 427.956 99.9015L435.21 104.64ZM427.829 80.5636C426.301 69.0377 417.52 61.9941 406.83 61.9941C396.268 61.9941 386.341 68.9097 384.178 80.5636H427.829ZM520.839 120.264C534.074 120.264 543.492 114.245 549.091 104.64L541.837 99.9015C537.51 107.457 531.274 111.94 520.839 111.94C506.967 111.94 497.423 101.694 497.295 88.5037H551V86.0704C550.873 65.58 537.637 53.6699 521.093 53.6699C501.75 53.6699 488.133 68.3974 488.133 86.9669C488.133 105.408 500.859 120.264 520.839 120.264ZM520.712 61.9941C531.402 61.9941 540.183 69.0377 541.71 80.5636H498.059C500.222 68.9097 510.149 61.9941 520.712 61.9941ZM454.798 37.2859H463.813V54.9836H482.327V63.4111H463.813V110.522H482.327V118.949H463.813H454.798V110.522V63.4111H441.238V54.9836H454.798V37.2859ZM347.74 54.9836H338.726V63.4111V118.949H347.74V63.4111H371.591V54.9836H347.74ZM206.262 80.8348C206.262 69.3386 214.293 61.9559 224.201 61.9559C234.108 61.9559 242.14 69.4552 242.14 80.8348V118.957H251.154V80.8348C251.154 65.8548 239.087 53.711 224.201 53.711C209.315 53.711 197.247 65.8548 197.247 80.8348V118.957H206.262V80.8348Z" fill="white"/>
<path d="M610.21 119.25H619.735V38.224H648.945V29.08H581V38.224H610.21V119.25Z" fill="white"/>
<path d="M674.801 120.52C684.58 120.52 693.724 115.44 698.296 108.582V119.25H707.186V55.75H698.296V66.418C693.724 59.56 684.58 54.48 674.801 54.48C656.767 54.48 643.178 69.339 643.178 87.5C643.178 105.661 656.767 120.52 674.801 120.52ZM675.69 112.265C661.847 112.265 652.322 101.216 652.322 87.5C652.322 73.784 661.847 62.735 675.69 62.735C689.533 62.735 699.058 73.784 699.058 87.5C699.058 101.216 689.533 112.265 675.69 112.265Z" fill="white"/>
<path d="M758.742 120.52C776.776 120.52 790.365 105.661 790.365 87.5C790.365 69.339 776.776 54.48 758.742 54.48C748.963 54.48 739.819 59.56 735.247 66.418V24H726.357V119.25H735.247V108.582C739.819 115.44 748.963 120.52 758.742 120.52ZM757.853 112.265C744.01 112.265 734.485 101.216 734.485 87.5C734.485 73.784 744.01 62.735 757.853 62.735C771.696 62.735 781.221 73.784 781.221 87.5C781.221 101.216 771.696 112.265 757.853 112.265Z" fill="white"/>
<path d="M804.203 119.25H813.093V24H804.203V119.25Z" fill="white"/>
<path d="M859.747 120.52C872.955 120.52 882.353 114.551 887.941 105.026L880.702 100.327C876.384 107.82 870.161 112.265 859.747 112.265C845.904 112.265 836.379 102.105 836.252 89.024H889.846V86.611C889.719 66.291 876.511 54.48 860.001 54.48C840.697 54.48 827.108 69.085 827.108 87.5C827.108 105.788 839.808 120.52 859.747 120.52ZM859.62 62.735C870.288 62.735 879.051 69.72 880.575 81.15H837.013C839.172 69.593 849.078 62.735 859.62 62.735Z" fill="white"/>
</svg>
