<svg width="1440" height="720" viewBox="0 0 1440 720" fill="none" xmlns="http://www.w3.org/2000/svg">
<g clip-path="url(#clip0)">
<rect width="1440" height="720" fill="#2D132C"/>
<path d="M1609.89 943.928C1419.77 1037.03 1190.45 958.916 1097.66 769.461C1004.88 580.007 1083.77 350.944 1273.89 257.838C1464 164.733 1693.33 242.851 1786.11 432.305C1878.89 621.759 1800 850.823 1609.89 943.928Z" stroke="#FF4A3C" stroke-width="3"/>
<rect x="1439.62" y="601.996" width="624.747" height="624.747" transform="rotate(108.907 1439.62 601.996)" stroke="#FFBD15" stroke-width="3"/>
<path d="M1098.19 769.201C1052.08 675.039 1048.21 571.171 1079.22 479.079L1438.98 602.306L1315.75 962.07C1223.99 930.105 1144.31 863.363 1098.19 769.201Z" stroke="#9A4797" stroke-width="4"/>
<path fill-rule="evenodd" clip-rule="evenodd" d="M93.5129 614.823C95.1785 612.548 97.6586 610.691 102.359 610.691C108.282 610.691 112.576 614.861 112.576 620.054V636.393H103.026V623.807C103.026 620.812 102.322 617.666 98.3989 617.666C94.8824 617.666 93.5129 620.737 93.5129 623.201V636.393H84V600H93.5129V614.823ZM161.658 614.936C161.658 614.936 163.915 610.728 170.134 610.728C176.612 610.728 181.72 615.884 181.72 623.845C181.72 631.958 176.908 637 170.134 637C164.064 637 161.658 632.716 161.658 632.716V636.393H152.034V600H161.658V614.936ZM116.536 623.845C116.536 615.884 121.644 610.728 128.122 610.728C134.303 610.728 136.524 614.936 136.524 614.936V611.335H146.185V636.393H136.524V632.716C136.524 632.716 134.155 637 128.122 637C121.348 637 116.536 631.958 116.536 623.845ZM186.791 611.032L196.526 621.04L206.261 611.032L209 613.837L199.265 623.845L209 633.853L206.261 636.621L196.526 626.651L186.791 636.621L184.015 633.853L193.787 623.845L184.015 613.837L186.791 611.032ZM125.42 623.656C125.42 626.992 128.048 629.646 131.268 629.646C134.452 629.646 137.117 626.992 137.117 623.656C137.117 620.396 134.452 617.704 131.268 617.704C128.048 617.704 125.42 620.396 125.42 623.656ZM161.176 623.656C161.176 626.992 163.804 629.646 167.025 629.646C170.245 629.646 172.836 626.992 172.836 623.656C172.836 620.396 170.245 617.704 167.025 617.704C163.804 617.704 161.176 620.396 161.176 623.656Z" fill="white" fill-opacity="0.95"/>
</g>
<defs>
<clipPath id="clip0">
<rect width="1440" height="720" fill="white"/>
</clipPath>
</defs>
</svg>
