<svg width="812" height="126" viewBox="0 0 812 126" fill="none" xmlns="http://www.w3.org/2000/svg">
<path d="M1 97.1477H25.7103C54.1144 97.1477 74.3666 78.0708 74.3666 51.999C74.3666 25.9272 54.1144 6.85026 25.7103 6.85026H1V97.1477ZM10.6803 87.9908V16.0072H25.7103C49.1468 16.0072 64.5589 31.1415 64.5589 51.999C64.5589 72.8564 49.1468 87.9908 25.7103 87.9908H10.6803Z" stroke="white" stroke-width="2"/>
<path d="M116.25 98.4195C129.496 98.4195 138.922 92.442 144.526 82.9036L137.266 78.1979C132.935 85.7015 126.694 90.1528 116.25 90.1528C102.366 90.1528 92.8131 79.9785 92.6857 66.879H146.437V64.4626C146.31 44.1138 133.063 32.2861 116.504 32.2861C97.1437 32.2861 83.5149 46.9118 83.5149 65.3528C83.5149 83.6667 96.2521 98.4195 116.25 98.4195ZM116.122 40.5528C126.822 40.5528 135.61 47.5477 137.139 58.9938H93.4499C95.6153 47.4205 105.55 40.5528 116.122 40.5528Z" stroke="white" stroke-width="2"/>
<path d="M178.942 98.4195C191.297 98.4195 200.213 92.3149 200.213 79.8513C200.213 70.5672 194.354 64.8441 183.655 61.1559L176.522 58.7395C168.625 56.0687 166.078 53.2708 166.078 48.5651C166.078 43.2236 171.427 40.1713 177.923 40.1713C184.037 40.1713 188.113 42.8421 191.679 47.1662L198.048 41.4431C193.08 34.8297 185.566 32.2861 178.051 32.2861C165.823 32.2861 157.161 39.0267 157.161 48.9467C157.161 57.5949 162.638 63.3179 172.574 66.7518L179.324 69.041C187.986 71.9661 191.297 75.5272 191.297 80.6144C191.297 86.8461 185.82 90.4072 178.942 90.4072C171.682 90.4072 164.294 86.4646 162.129 79.4697L154.104 82.7764C157.416 93.2051 167.479 98.4195 178.942 98.4195Z" stroke="white" stroke-width="2"/>
<path d="M218.871 14.481C222.565 14.481 225.494 11.4287 225.494 7.74052C225.494 4.05231 222.565 1 218.871 1C215.05 1 211.993 4.05231 211.993 7.74052C211.993 11.4287 215.05 14.481 218.871 14.481ZM214.285 97.1477H223.201V33.558H214.285V97.1477Z" stroke="white" stroke-width="2"/>
<path d="M269.483 125C287.188 125 300.944 114.571 300.944 93.841V33.558H292.028V44.241C287.442 37.3733 278.526 32.2861 268.719 32.2861C250.632 32.2861 237.258 46.5303 237.258 64.7169C237.258 82.9036 250.632 97.1477 268.719 97.1477C278.526 97.1477 287.442 92.0605 292.028 85.1928V93.3323C292.028 110.12 280.437 116.733 269.483 116.733C258.784 116.733 251.396 112.028 246.428 105.16L239.423 111.137C244.263 118.387 254.835 125 269.483 125ZM269.61 88.881C255.727 88.881 246.428 78.4523 246.428 64.7169C246.428 50.9815 255.727 40.5528 269.61 40.5528C283.494 40.5528 292.792 50.9815 292.792 64.7169C292.792 78.4523 283.494 88.881 269.61 88.881Z" stroke="white" stroke-width="2"/>
<path d="M320.18 97.1477H329.097V65.48C329.097 49.7097 337.758 40.5528 348.967 40.5528C358.392 40.5528 365.016 47.4205 365.016 58.6123V97.1477H373.932V57.3405C373.932 41.8246 363.869 32.2861 349.986 32.2861C341.706 32.2861 333.682 35.8472 329.097 44.241V33.558H320.18V97.1477Z" stroke="white" stroke-width="2"/>
<path d="M446.569 98.6738C462.872 98.6738 474.59 89.5169 474.59 74.3826C474.59 61.0287 467.075 53.6523 453.574 48.4379L441.601 43.8595C432.43 40.2985 428.099 36.6103 428.099 28.3436C428.099 20.0769 435.869 14.481 445.677 14.481C453.956 14.481 459.433 18.1692 464.146 23.7651L471.661 17.6605C466.821 10.7928 457.523 5.3241 446.059 5.3241C430.392 5.3241 418.419 14.3538 418.419 28.4708C418.419 40.8072 424.406 47.802 438.417 53.1436L451.791 58.2308C460.07 61.4103 464.91 66.7518 464.91 74.6369C464.91 83.921 456.758 89.5169 446.696 89.5169C435.742 89.5169 428.482 84.6841 423.387 76.6718L415.362 82.3949C419.438 91.4246 431.539 98.6738 446.569 98.6738Z" stroke="white" stroke-width="2"/>
<path d="M500.512 123.728L542.8 33.558H532.737L509.428 84.0482L486.119 33.558H476.184L504.461 93.9682L490.45 123.728H500.512Z" stroke="white" stroke-width="2"/>
<path d="M570.099 98.4195C582.454 98.4195 591.37 92.3149 591.37 79.8513C591.37 70.5672 585.511 64.8441 574.811 61.1559L567.679 58.7395C559.781 56.0687 557.234 53.2708 557.234 48.5651C557.234 43.2236 562.584 40.1713 569.08 40.1713C575.194 40.1713 579.269 42.8421 582.836 47.1662L589.205 41.4431C584.237 34.8297 576.722 32.2861 569.207 32.2861C556.979 32.2861 548.318 39.0267 548.318 48.9467C548.318 57.5949 553.795 63.3179 563.73 66.7518L570.481 69.041C579.142 71.9661 582.454 75.5272 582.454 80.6144C582.454 86.8461 576.977 90.4072 570.099 90.4072C562.838 90.4072 555.451 86.4646 553.285 79.4697L545.261 82.7764C548.573 93.2051 558.635 98.4195 570.099 98.4195Z" stroke="white" stroke-width="2"/>
<path d="M627.62 97.7836C631.186 97.7836 634.37 97.1477 637.045 96.1303V88.1179C635.007 88.881 631.568 89.5169 629.021 89.5169C622.27 89.5169 618.449 86.8462 618.449 78.7067V41.9518H637.045V33.558H618.449V15.88H609.533V33.558H595.904V41.9518H609.533V79.4697C609.533 91.9333 617.302 97.7836 627.62 97.7836Z" stroke="white" stroke-width="2"/>
<path d="M675.578 98.4195C688.824 98.4195 698.25 92.442 703.854 82.9036L696.594 78.1979C692.264 85.7015 686.022 90.1528 675.578 90.1528C661.694 90.1528 652.141 79.9785 652.014 66.879H705.765V64.4626C705.638 44.1138 692.391 32.2861 675.833 32.2861C656.472 32.2861 642.843 46.9118 642.843 65.3528C642.843 83.6667 655.58 98.4195 675.578 98.4195ZM675.45 40.5528C686.15 40.5528 694.938 47.5477 696.467 58.9938H652.778C654.943 47.4205 664.878 40.5528 675.45 40.5528Z" stroke="white" stroke-width="2"/>
<path d="M719.546 97.1477H728.463V65.48C728.463 50.3456 736.232 40.5528 747.441 40.5528C756.23 40.5528 760.815 48.1836 760.815 58.6123V97.1477H769.731V65.48C769.731 50.3456 777.374 40.5528 788.582 40.5528C797.371 40.5528 802.084 48.1836 802.084 58.6123V97.1477H811V57.3405C811 42.4605 802.593 32.2861 789.219 32.2861C779.029 32.2861 771.26 38.0092 768.075 46.5303C765.018 37.7549 758.013 32.2861 748.333 32.2861C739.544 32.2861 732.156 36.8646 728.463 44.241V33.558H719.546V97.1477Z" stroke="white" stroke-width="2"/>
</svg>
