<svg width="78" height="48" viewBox="0 0 78 48" fill="none" xmlns="http://www.w3.org/2000/svg">
<path d="M32.3191 7.17033C31.921 6.60161 31.0788 6.60161 30.6807 7.17033L15.1012 29.4267C14.6373 30.0895 15.1114 31.0001 15.9205 31.0001L47.0793 31.0001C47.8884 31.0001 48.3625 30.0895 47.8986 29.4267L32.3191 7.17033Z" fill="#FFBD15"/>
<path d="M45.6809 39.8297C46.079 40.3984 46.9212 40.3984 47.3193 39.8297L62.8988 17.5733C63.3627 16.9105 62.8886 15.9999 62.0795 15.9999H30.9207C30.1116 15.9999 29.6375 16.9105 30.1014 17.5733L45.6809 39.8297Z" fill="#9A4797"/>
<path fill-rule="evenodd" clip-rule="evenodd" d="M38.5002 15.9999H30.9207C30.1117 15.9999 29.6375 16.9106 30.1015 17.5733L39.5002 31.0002L47.0797 31.0002C47.8888 31.0002 48.3629 30.0895 47.899 29.4267L38.5002 15.9999Z" fill="white"/>
</svg>
