<svg width="64" height="48" viewBox="0 0 64 48" fill="none" xmlns="http://www.w3.org/2000/svg">
<path fill-rule="evenodd" clip-rule="evenodd" d="M22.5 40C8.625 31.5789 4 25.6842 4 17.2632C4 12.1473 8.14131 8 13.25 8C18.3587 8 22.5 12.1473 22.5 17.2632C22.5 12.1473 26.6413 8 31.75 8C36.8587 8 41 12.1473 41 17.2632C41 25.6842 36.375 31.5789 22.5 40Z" fill="#FF4A3C"/>
<path fill-rule="evenodd" clip-rule="evenodd" d="M41.5 40C27.625 31.5789 23 25.6842 23 17.2632C23 12.1473 27.1413 8 32.25 8C37.3587 8 41.5 12.1473 41.5 17.2632C41.5 12.1473 45.6413 8 50.75 8C55.8587 8 60 12.1473 60 17.2632C60 25.6842 55.375 31.5789 41.5 40Z" fill="#FFBD15"/>
<path fill-rule="evenodd" clip-rule="evenodd" d="M41.3334 17.2122C41.3334 12.3797 37.6608 8.40505 32.9544 7.92709C32.6406 7.89523 32.3223 7.87891 32.0001 7.87891C26.8454 7.87891 22.6667 12.0576 22.6667 17.2122C22.6667 23.4236 25.1676 28.2708 32.0001 33.7511C38.8326 28.2708 41.3334 23.4236 41.3334 17.2122Z" fill="#39100C"/>
</svg>
