<svg width="56" height="48" viewBox="0 0 56 48" fill="none" xmlns="http://www.w3.org/2000/svg">
<circle cx="16" cy="32.2107" r="10.7368" fill="#FF4A3C"/>
<path d="M52 15.7896C52.0001 24.0001 49.4737 26.5264 41.2632 26.5264C33.0527 26.5264 30.5264 24.0001 30.5264 15.7896C30.5264 7.57905 33.0527 5.05273 41.2632 5.05273C49.4737 5.05273 52 7.57905 52 15.7896Z" fill="#FF4A3C"/>
<rect x="30.5264" y="21.4739" width="21.4737" height="21.4737" fill="#FFBD15"/>
<path fill-rule="evenodd" clip-rule="evenodd" d="M51.3189 21.4739C50.1108 25.2295 47.1461 26.5265 41.2631 26.5265C35.3801 26.5265 32.4154 25.2295 31.2073 21.4739H51.3189Z" fill="#39100C"/>
<path d="M16 7.5791L28 26.5265H4L16 7.5791Z" fill="#FFBD15"/>
<path fill-rule="evenodd" clip-rule="evenodd" d="M25.1103 26.5265H6.8894C8.78657 23.4922 12.1575 21.4739 15.9999 21.4739C19.8422 21.4739 23.2132 23.4922 25.1103 26.5265Z" fill="#39100C"/>
</svg>
