<svg width="575" height="142" viewBox="0 0 575 142" fill="none" xmlns="http://www.w3.org/2000/svg">
<path fill-rule="evenodd" clip-rule="evenodd" d="M110.029 96.7411C101.757 109.676 87.3764 118 70.7051 118C44.6164 118 24 97.5095 24 71C24 44.4905 44.6164 24 70.7051 24C87.3764 24 101.757 32.3243 110.029 45.2589L102.012 50.3815C95.5212 40.1362 84.3222 33.2207 70.7051 33.2207C49.7069 33.2207 33.7992 49.7411 33.7992 71C33.7992 92.2589 49.7069 108.779 70.7051 108.779C84.3222 108.779 95.5212 101.864 102.012 91.6185L110.029 96.7411ZM183.463 84.4469C183.463 102.76 169.591 117.744 150.247 117.744C130.903 117.744 117.032 102.76 117.032 84.4469C117.032 66.1335 130.903 51.1499 150.247 51.1499C169.591 51.1499 183.463 66.1335 183.463 84.4469ZM126.195 84.4469C126.195 98.1499 135.739 109.42 150.247 109.42C164.755 109.42 174.3 98.1499 174.3 84.4469C174.3 70.7439 164.755 59.4741 150.247 59.4741C135.739 59.4741 126.195 70.7439 126.195 84.4469ZM297.187 117.744C310.295 117.744 320.73 110.956 326.33 100.967L318.567 96.485C314.749 104.169 307.113 109.42 297.187 109.42C282.679 109.42 273.134 98.1499 273.134 84.4469C273.134 70.7439 282.679 59.4741 297.187 59.4741C307.113 59.4741 314.749 64.7248 318.567 72.4087L326.33 67.9264C320.73 57.9373 310.295 51.1499 297.187 51.1499C277.843 51.1499 263.971 66.1335 263.971 84.4469C263.971 102.76 277.843 117.744 297.187 117.744ZM435.21 102.12C429.61 111.725 420.193 117.744 406.958 117.744C386.978 117.744 374.251 102.888 374.251 84.4469C374.251 65.8774 387.868 51.1499 407.212 51.1499C423.756 51.1499 436.992 63.0599 437.119 83.5504V85.9837H383.414C383.542 99.1744 393.086 109.42 406.958 109.42C417.393 109.42 423.629 104.937 427.956 97.3815L435.21 102.12ZM427.829 78.0436C426.301 66.5177 417.52 59.4741 406.83 59.4741C396.268 59.4741 386.341 66.3896 384.178 78.0436H427.829ZM520.839 117.744C534.074 117.744 543.492 111.725 549.091 102.12L541.837 97.3815C537.51 104.937 531.274 109.42 520.839 109.42C506.967 109.42 497.423 99.1744 497.295 85.9837H551V83.5504C550.873 63.0599 537.637 51.1499 521.093 51.1499C501.75 51.1499 488.133 65.8774 488.133 84.4469C488.133 102.888 500.859 117.744 520.839 117.744ZM520.712 59.4741C531.402 59.4741 540.183 66.5177 541.71 78.0436H498.059C500.222 66.3896 510.149 59.4741 520.712 59.4741ZM454.798 34.7658H463.813V52.4636H482.327V60.8911H463.813V108.002H482.327V116.429H463.813H454.798V108.002V60.8911H441.238V52.4636H454.798V34.7658ZM347.74 52.4636H338.726V60.8911V116.429H347.74V60.8911H371.591V52.4636H347.74ZM206.262 78.3148C206.262 66.8186 214.293 59.4359 224.201 59.4359C234.108 59.4359 242.14 66.9352 242.14 78.3148V116.437H251.154V78.3148C251.154 63.3347 239.087 51.191 224.201 51.191C209.315 51.191 197.247 63.3347 197.247 78.3148V116.437H206.262V78.3148Z" fill="#18141F"/>
</svg>
